<mxfile host="app.diagrams.net" agent="Mozilla/5.0 (Windows NT 10.0; Win64; x64) AppleWebKit/537.36 (KHTML, like Gecko) Chrome/130.0.0.0 Safari/537.36" version="24.7.6">
  <diagram name="Page-1" id="4_rorA8YNqFOLEYnOl5a">
    <mxGraphModel dx="1050" dy="557" grid="1" gridSize="10" guides="1" tooltips="1" connect="1" arrows="1" fold="1" page="1" pageScale="1" pageWidth="827" pageHeight="1169" math="0" shadow="0">
      <root>
        <mxCell id="0" />
        <mxCell id="1" parent="0" />
        <mxCell id="plH9O1ysXdi047SJPnXN-4" value="Game Container" style="rounded=1;whiteSpace=wrap;html=1;" vertex="1" parent="1">
          <mxGeometry x="360" y="270" width="430" height="220" as="geometry" />
        </mxCell>
        <mxCell id="plH9O1ysXdi047SJPnXN-42" style="edgeStyle=none;rounded=0;orthogonalLoop=1;jettySize=auto;html=1;entryX=0.5;entryY=0;entryDx=0;entryDy=0;fillColor=#d5e8d4;strokeColor=#82b366;" edge="1" parent="1" source="plH9O1ysXdi047SJPnXN-1" target="plH9O1ysXdi047SJPnXN-6">
          <mxGeometry relative="1" as="geometry" />
        </mxCell>
        <mxCell id="plH9O1ysXdi047SJPnXN-1" value="App" style="rounded=1;whiteSpace=wrap;html=1;" vertex="1" parent="1">
          <mxGeometry x="354" y="40" width="120" height="60" as="geometry" />
        </mxCell>
        <mxCell id="plH9O1ysXdi047SJPnXN-2" value="Canvas" style="rounded=1;whiteSpace=wrap;html=1;" vertex="1" parent="1">
          <mxGeometry x="650" y="400" width="120" height="60" as="geometry" />
        </mxCell>
        <mxCell id="plH9O1ysXdi047SJPnXN-3" value="Picture" style="rounded=1;whiteSpace=wrap;html=1;" vertex="1" parent="1">
          <mxGeometry x="380" y="400" width="120" height="60" as="geometry" />
        </mxCell>
        <mxCell id="plH9O1ysXdi047SJPnXN-34" style="edgeStyle=none;rounded=0;orthogonalLoop=1;jettySize=auto;html=1;fillColor=#d5e8d4;strokeColor=#82b366;" edge="1" parent="1" source="plH9O1ysXdi047SJPnXN-6" target="plH9O1ysXdi047SJPnXN-35">
          <mxGeometry relative="1" as="geometry">
            <mxPoint x="570" y="180" as="targetPoint" />
          </mxGeometry>
        </mxCell>
        <mxCell id="plH9O1ysXdi047SJPnXN-6" value="Home Screen" style="rounded=1;whiteSpace=wrap;html=1;" vertex="1" parent="1">
          <mxGeometry x="360" y="150" width="120" height="60" as="geometry" />
        </mxCell>
        <mxCell id="plH9O1ysXdi047SJPnXN-7" value="shapes.json" style="swimlane;fontStyle=0;childLayout=stackLayout;horizontal=1;startSize=30;horizontalStack=0;resizeParent=1;resizeParentMax=0;resizeLast=0;collapsible=1;marginBottom=0;whiteSpace=wrap;html=1;" vertex="1" parent="1">
          <mxGeometry x="40" y="40" width="140" height="120" as="geometry">
            <mxRectangle x="80" y="70" width="100" height="30" as="alternateBounds" />
          </mxGeometry>
        </mxCell>
        <mxCell id="plH9O1ysXdi047SJPnXN-8" value="Square" style="text;strokeColor=none;fillColor=none;align=left;verticalAlign=middle;spacingLeft=4;spacingRight=4;overflow=hidden;points=[[0,0.5],[1,0.5]];portConstraint=eastwest;rotatable=0;whiteSpace=wrap;html=1;" vertex="1" parent="plH9O1ysXdi047SJPnXN-7">
          <mxGeometry y="30" width="140" height="30" as="geometry" />
        </mxCell>
        <mxCell id="plH9O1ysXdi047SJPnXN-9" value="Circle" style="text;strokeColor=none;fillColor=none;align=left;verticalAlign=middle;spacingLeft=4;spacingRight=4;overflow=hidden;points=[[0,0.5],[1,0.5]];portConstraint=eastwest;rotatable=0;whiteSpace=wrap;html=1;" vertex="1" parent="plH9O1ysXdi047SJPnXN-7">
          <mxGeometry y="60" width="140" height="30" as="geometry" />
        </mxCell>
        <mxCell id="plH9O1ysXdi047SJPnXN-10" value="Star" style="text;strokeColor=none;fillColor=none;align=left;verticalAlign=middle;spacingLeft=4;spacingRight=4;overflow=hidden;points=[[0,0.5],[1,0.5]];portConstraint=eastwest;rotatable=0;whiteSpace=wrap;html=1;" vertex="1" parent="plH9O1ysXdi047SJPnXN-7">
          <mxGeometry y="90" width="140" height="30" as="geometry" />
        </mxCell>
        <mxCell id="plH9O1ysXdi047SJPnXN-11" value="Letters.json" style="swimlane;fontStyle=0;childLayout=stackLayout;horizontal=1;startSize=30;horizontalStack=0;resizeParent=1;resizeParentMax=0;resizeLast=0;collapsible=1;marginBottom=0;whiteSpace=wrap;html=1;" vertex="1" parent="1">
          <mxGeometry x="40" y="180" width="140" height="120" as="geometry" />
        </mxCell>
        <mxCell id="plH9O1ysXdi047SJPnXN-12" value="a" style="text;strokeColor=none;fillColor=none;align=left;verticalAlign=middle;spacingLeft=4;spacingRight=4;overflow=hidden;points=[[0,0.5],[1,0.5]];portConstraint=eastwest;rotatable=0;whiteSpace=wrap;html=1;" vertex="1" parent="plH9O1ysXdi047SJPnXN-11">
          <mxGeometry y="30" width="140" height="30" as="geometry" />
        </mxCell>
        <mxCell id="plH9O1ysXdi047SJPnXN-13" value="b" style="text;strokeColor=none;fillColor=none;align=left;verticalAlign=middle;spacingLeft=4;spacingRight=4;overflow=hidden;points=[[0,0.5],[1,0.5]];portConstraint=eastwest;rotatable=0;whiteSpace=wrap;html=1;" vertex="1" parent="plH9O1ysXdi047SJPnXN-11">
          <mxGeometry y="60" width="140" height="30" as="geometry" />
        </mxCell>
        <mxCell id="plH9O1ysXdi047SJPnXN-14" value="c" style="text;strokeColor=none;fillColor=none;align=left;verticalAlign=middle;spacingLeft=4;spacingRight=4;overflow=hidden;points=[[0,0.5],[1,0.5]];portConstraint=eastwest;rotatable=0;whiteSpace=wrap;html=1;" vertex="1" parent="plH9O1ysXdi047SJPnXN-11">
          <mxGeometry y="90" width="140" height="30" as="geometry" />
        </mxCell>
        <mxCell id="plH9O1ysXdi047SJPnXN-15" value="Numbers.json" style="swimlane;fontStyle=0;childLayout=stackLayout;horizontal=1;startSize=30;horizontalStack=0;resizeParent=1;resizeParentMax=0;resizeLast=0;collapsible=1;marginBottom=0;whiteSpace=wrap;html=1;" vertex="1" parent="1">
          <mxGeometry x="40" y="320" width="140" height="120" as="geometry" />
        </mxCell>
        <mxCell id="plH9O1ysXdi047SJPnXN-16" value="1" style="text;strokeColor=none;fillColor=none;align=left;verticalAlign=middle;spacingLeft=4;spacingRight=4;overflow=hidden;points=[[0,0.5],[1,0.5]];portConstraint=eastwest;rotatable=0;whiteSpace=wrap;html=1;" vertex="1" parent="plH9O1ysXdi047SJPnXN-15">
          <mxGeometry y="30" width="140" height="30" as="geometry" />
        </mxCell>
        <mxCell id="plH9O1ysXdi047SJPnXN-17" value="2" style="text;strokeColor=none;fillColor=none;align=left;verticalAlign=middle;spacingLeft=4;spacingRight=4;overflow=hidden;points=[[0,0.5],[1,0.5]];portConstraint=eastwest;rotatable=0;whiteSpace=wrap;html=1;" vertex="1" parent="plH9O1ysXdi047SJPnXN-15">
          <mxGeometry y="60" width="140" height="30" as="geometry" />
        </mxCell>
        <mxCell id="plH9O1ysXdi047SJPnXN-18" value="3" style="text;strokeColor=none;fillColor=none;align=left;verticalAlign=middle;spacingLeft=4;spacingRight=4;overflow=hidden;points=[[0,0.5],[1,0.5]];portConstraint=eastwest;rotatable=0;whiteSpace=wrap;html=1;" vertex="1" parent="plH9O1ysXdi047SJPnXN-15">
          <mxGeometry y="90" width="140" height="30" as="geometry" />
        </mxCell>
        <mxCell id="plH9O1ysXdi047SJPnXN-19" value="Colours.json" style="swimlane;fontStyle=0;childLayout=stackLayout;horizontal=1;startSize=30;horizontalStack=0;resizeParent=1;resizeParentMax=0;resizeLast=0;collapsible=1;marginBottom=0;whiteSpace=wrap;html=1;" vertex="1" parent="1">
          <mxGeometry x="40" y="460" width="140" height="120" as="geometry" />
        </mxCell>
        <mxCell id="plH9O1ysXdi047SJPnXN-20" value="Red&lt;span style=&quot;white-space: pre;&quot;&gt;&#x9;&lt;/span&gt;" style="text;strokeColor=none;fillColor=none;align=left;verticalAlign=middle;spacingLeft=4;spacingRight=4;overflow=hidden;points=[[0,0.5],[1,0.5]];portConstraint=eastwest;rotatable=0;whiteSpace=wrap;html=1;" vertex="1" parent="plH9O1ysXdi047SJPnXN-19">
          <mxGeometry y="30" width="140" height="30" as="geometry" />
        </mxCell>
        <mxCell id="plH9O1ysXdi047SJPnXN-21" value="Blue" style="text;strokeColor=none;fillColor=none;align=left;verticalAlign=middle;spacingLeft=4;spacingRight=4;overflow=hidden;points=[[0,0.5],[1,0.5]];portConstraint=eastwest;rotatable=0;whiteSpace=wrap;html=1;" vertex="1" parent="plH9O1ysXdi047SJPnXN-19">
          <mxGeometry y="60" width="140" height="30" as="geometry" />
        </mxCell>
        <mxCell id="plH9O1ysXdi047SJPnXN-22" value="Green" style="text;strokeColor=none;fillColor=none;align=left;verticalAlign=middle;spacingLeft=4;spacingRight=4;overflow=hidden;points=[[0,0.5],[1,0.5]];portConstraint=eastwest;rotatable=0;whiteSpace=wrap;html=1;" vertex="1" parent="plH9O1ysXdi047SJPnXN-19">
          <mxGeometry y="90" width="140" height="30" as="geometry" />
        </mxCell>
        <mxCell id="plH9O1ysXdi047SJPnXN-26" style="edgeStyle=none;rounded=0;orthogonalLoop=1;jettySize=auto;html=1;entryX=0;entryY=0.5;entryDx=0;entryDy=0;fillColor=#f8cecc;strokeColor=#b85450;" edge="1" parent="1" source="plH9O1ysXdi047SJPnXN-25" target="plH9O1ysXdi047SJPnXN-6">
          <mxGeometry relative="1" as="geometry" />
        </mxCell>
        <mxCell id="plH9O1ysXdi047SJPnXN-25" value="User chooses a category to draw" style="text;html=1;align=center;verticalAlign=middle;whiteSpace=wrap;rounded=0;" vertex="1" parent="1">
          <mxGeometry x="220" y="120" width="100" height="30" as="geometry" />
        </mxCell>
        <mxCell id="plH9O1ysXdi047SJPnXN-27" style="edgeStyle=none;rounded=0;orthogonalLoop=1;jettySize=auto;html=1;entryX=0.644;entryY=0.133;entryDx=0;entryDy=0;entryPerimeter=0;fillColor=#f8cecc;strokeColor=#b85450;" edge="1" parent="1" source="plH9O1ysXdi047SJPnXN-8" target="plH9O1ysXdi047SJPnXN-25">
          <mxGeometry relative="1" as="geometry" />
        </mxCell>
        <mxCell id="plH9O1ysXdi047SJPnXN-29" style="edgeStyle=none;rounded=0;orthogonalLoop=1;jettySize=auto;html=1;entryX=0.684;entryY=0.933;entryDx=0;entryDy=0;entryPerimeter=0;fillColor=#f8cecc;strokeColor=#b85450;" edge="1" parent="1" source="plH9O1ysXdi047SJPnXN-17" target="plH9O1ysXdi047SJPnXN-25">
          <mxGeometry relative="1" as="geometry" />
        </mxCell>
        <mxCell id="plH9O1ysXdi047SJPnXN-30" style="edgeStyle=none;rounded=0;orthogonalLoop=1;jettySize=auto;html=1;entryX=0.25;entryY=1;entryDx=0;entryDy=0;fillColor=#f8cecc;strokeColor=#b85450;" edge="1" parent="1" source="plH9O1ysXdi047SJPnXN-13" target="plH9O1ysXdi047SJPnXN-25">
          <mxGeometry relative="1" as="geometry" />
        </mxCell>
        <mxCell id="plH9O1ysXdi047SJPnXN-31" value="User chooses a colour to draw with" style="text;html=1;align=center;verticalAlign=middle;whiteSpace=wrap;rounded=0;" vertex="1" parent="1">
          <mxGeometry x="230" y="330" width="100" height="30" as="geometry" />
        </mxCell>
        <mxCell id="plH9O1ysXdi047SJPnXN-32" style="edgeStyle=none;rounded=0;orthogonalLoop=1;jettySize=auto;html=1;fillColor=#f8cecc;strokeColor=#b85450;" edge="1" parent="1" source="plH9O1ysXdi047SJPnXN-21" target="plH9O1ysXdi047SJPnXN-31">
          <mxGeometry relative="1" as="geometry" />
        </mxCell>
        <mxCell id="plH9O1ysXdi047SJPnXN-33" style="edgeStyle=none;rounded=0;orthogonalLoop=1;jettySize=auto;html=1;entryX=0.13;entryY=0.943;entryDx=0;entryDy=0;entryPerimeter=0;fillColor=#f8cecc;strokeColor=#b85450;" edge="1" parent="1" source="plH9O1ysXdi047SJPnXN-31" target="plH9O1ysXdi047SJPnXN-6">
          <mxGeometry relative="1" as="geometry" />
        </mxCell>
        <mxCell id="plH9O1ysXdi047SJPnXN-35" value="Sets states to user choice" style="shape=process;whiteSpace=wrap;html=1;backgroundOutline=1;" vertex="1" parent="1">
          <mxGeometry x="560" y="150" width="120" height="60" as="geometry" />
        </mxCell>
        <mxCell id="plH9O1ysXdi047SJPnXN-36" style="edgeStyle=none;rounded=0;orthogonalLoop=1;jettySize=auto;html=1;entryX=0.607;entryY=0.021;entryDx=0;entryDy=0;entryPerimeter=0;fillColor=#d5e8d4;strokeColor=#82b366;" edge="1" parent="1" source="plH9O1ysXdi047SJPnXN-35" target="plH9O1ysXdi047SJPnXN-4">
          <mxGeometry relative="1" as="geometry" />
        </mxCell>
        <mxCell id="plH9O1ysXdi047SJPnXN-41" style="edgeStyle=none;rounded=0;orthogonalLoop=1;jettySize=auto;html=1;fillColor=#ffe6cc;strokeColor=#d79b00;" edge="1" parent="1" source="plH9O1ysXdi047SJPnXN-38" target="plH9O1ysXdi047SJPnXN-3">
          <mxGeometry relative="1" as="geometry" />
        </mxCell>
        <mxCell id="plH9O1ysXdi047SJPnXN-38" value="Category" style="text;html=1;align=center;verticalAlign=middle;whiteSpace=wrap;rounded=0;" vertex="1" parent="1">
          <mxGeometry x="545" y="200" width="60" height="30" as="geometry" />
        </mxCell>
        <mxCell id="plH9O1ysXdi047SJPnXN-40" style="edgeStyle=none;rounded=0;orthogonalLoop=1;jettySize=auto;html=1;fillColor=#ffe6cc;strokeColor=#d79b00;" edge="1" parent="1" source="plH9O1ysXdi047SJPnXN-39" target="plH9O1ysXdi047SJPnXN-2">
          <mxGeometry relative="1" as="geometry" />
        </mxCell>
        <mxCell id="plH9O1ysXdi047SJPnXN-39" value="Colour" style="text;html=1;align=center;verticalAlign=middle;whiteSpace=wrap;rounded=0;" vertex="1" parent="1">
          <mxGeometry x="640" y="200" width="60" height="30" as="geometry" />
        </mxCell>
        <mxCell id="plH9O1ysXdi047SJPnXN-47" style="edgeStyle=none;rounded=0;orthogonalLoop=1;jettySize=auto;html=1;entryX=0;entryY=0.5;entryDx=0;entryDy=0;fillColor=#d5e8d4;strokeColor=#82b366;" edge="1" parent="1" source="plH9O1ysXdi047SJPnXN-44" target="plH9O1ysXdi047SJPnXN-46">
          <mxGeometry relative="1" as="geometry" />
        </mxCell>
        <mxCell id="plH9O1ysXdi047SJPnXN-44" value="After a set amount of time the users drawn image &quot;saves&quot;. They&amp;nbsp;&lt;div&gt;are then both sent to an AI, possibly SSIM and that measures the&amp;nbsp;&lt;/div&gt;&lt;div&gt;&quot;likeness&quot;. I will then parse some kind of score.&lt;/div&gt;" style="shape=hexagon;perimeter=hexagonPerimeter2;whiteSpace=wrap;html=1;fixedSize=1;" vertex="1" parent="1">
          <mxGeometry x="237" y="530" width="366" height="80" as="geometry" />
        </mxCell>
        <mxCell id="plH9O1ysXdi047SJPnXN-45" style="edgeStyle=none;rounded=0;orthogonalLoop=1;jettySize=auto;html=1;exitX=0.25;exitY=1;exitDx=0;exitDy=0;entryX=0.533;entryY=-0.012;entryDx=0;entryDy=0;entryPerimeter=0;fillColor=#d5e8d4;strokeColor=#82b366;" edge="1" parent="1" source="plH9O1ysXdi047SJPnXN-4" target="plH9O1ysXdi047SJPnXN-44">
          <mxGeometry relative="1" as="geometry" />
        </mxCell>
        <mxCell id="plH9O1ysXdi047SJPnXN-54" style="edgeStyle=none;rounded=0;orthogonalLoop=1;jettySize=auto;html=1;exitX=0.75;exitY=1;exitDx=0;exitDy=0;elbow=vertical;fillColor=#d5e8d4;strokeColor=#82b366;" edge="1" parent="1" source="plH9O1ysXdi047SJPnXN-46" target="plH9O1ysXdi047SJPnXN-48">
          <mxGeometry relative="1" as="geometry" />
        </mxCell>
        <mxCell id="plH9O1ysXdi047SJPnXN-57" style="edgeStyle=none;rounded=0;orthogonalLoop=1;jettySize=auto;html=1;exitX=0;exitY=1;exitDx=0;exitDy=0;entryX=0.75;entryY=0;entryDx=0;entryDy=0;elbow=vertical;fillColor=#d5e8d4;strokeColor=#82b366;" edge="1" parent="1" source="plH9O1ysXdi047SJPnXN-46" target="plH9O1ysXdi047SJPnXN-55">
          <mxGeometry relative="1" as="geometry" />
        </mxCell>
        <mxCell id="plH9O1ysXdi047SJPnXN-46" value="Score/Calculation&amp;nbsp;" style="rounded=1;whiteSpace=wrap;html=1;" vertex="1" parent="1">
          <mxGeometry x="640" y="540" width="120" height="60" as="geometry" />
        </mxCell>
        <mxCell id="plH9O1ysXdi047SJPnXN-52" style="edgeStyle=entityRelationEdgeStyle;rounded=0;orthogonalLoop=1;jettySize=auto;html=1;elbow=vertical;fillColor=#d5e8d4;strokeColor=#82b366;" edge="1" parent="1" source="plH9O1ysXdi047SJPnXN-48" target="plH9O1ysXdi047SJPnXN-4">
          <mxGeometry relative="1" as="geometry" />
        </mxCell>
        <mxCell id="plH9O1ysXdi047SJPnXN-48" value="Play Again, same states, different image. example if square previous can&#39;t have that straight away again" style="text;html=1;align=center;verticalAlign=middle;whiteSpace=wrap;rounded=0;" vertex="1" parent="1">
          <mxGeometry x="620" y="680" width="240" height="30" as="geometry" />
        </mxCell>
        <mxCell id="plH9O1ysXdi047SJPnXN-59" style="edgeStyle=orthogonalEdgeStyle;curved=1;rounded=0;orthogonalLoop=1;jettySize=auto;html=1;entryX=1;entryY=0.75;entryDx=0;entryDy=0;elbow=vertical;fillColor=#d5e8d4;strokeColor=#82b366;" edge="1" parent="1" source="plH9O1ysXdi047SJPnXN-55" target="plH9O1ysXdi047SJPnXN-6">
          <mxGeometry relative="1" as="geometry" />
        </mxCell>
        <mxCell id="plH9O1ysXdi047SJPnXN-55" value="Play different, reset states" style="text;html=1;align=center;verticalAlign=middle;whiteSpace=wrap;rounded=0;" vertex="1" parent="1">
          <mxGeometry x="480" y="650" width="130" height="30" as="geometry" />
        </mxCell>
        <mxCell id="plH9O1ysXdi047SJPnXN-60" value="" style="endArrow=classic;html=1;rounded=0;elbow=vertical;curved=1;fillColor=#d5e8d4;strokeColor=#82b366;" edge="1" parent="1">
          <mxGeometry width="50" height="50" relative="1" as="geometry">
            <mxPoint x="510" y="44.5" as="sourcePoint" />
            <mxPoint x="580" y="44.5" as="targetPoint" />
          </mxGeometry>
        </mxCell>
        <mxCell id="plH9O1ysXdi047SJPnXN-61" value="" style="endArrow=classic;html=1;rounded=0;elbow=vertical;curved=1;fillColor=#ffe6cc;strokeColor=#d79b00;" edge="1" parent="1">
          <mxGeometry width="50" height="50" relative="1" as="geometry">
            <mxPoint x="510" y="69.5" as="sourcePoint" />
            <mxPoint x="580" y="69.5" as="targetPoint" />
          </mxGeometry>
        </mxCell>
        <mxCell id="plH9O1ysXdi047SJPnXN-63" value="" style="endArrow=classic;html=1;rounded=0;elbow=vertical;curved=1;fillColor=#f8cecc;strokeColor=#b85450;" edge="1" parent="1">
          <mxGeometry width="50" height="50" relative="1" as="geometry">
            <mxPoint x="510" y="94.5" as="sourcePoint" />
            <mxPoint x="580" y="94.5" as="targetPoint" />
          </mxGeometry>
        </mxCell>
        <mxCell id="plH9O1ysXdi047SJPnXN-65" value="User Flow" style="text;html=1;align=center;verticalAlign=middle;whiteSpace=wrap;rounded=0;" vertex="1" parent="1">
          <mxGeometry x="580" y="30" width="60" height="30" as="geometry" />
        </mxCell>
        <mxCell id="plH9O1ysXdi047SJPnXN-67" value="States" style="text;html=1;align=center;verticalAlign=middle;whiteSpace=wrap;rounded=0;" vertex="1" parent="1">
          <mxGeometry x="570" y="55" width="60" height="30" as="geometry" />
        </mxCell>
        <mxCell id="plH9O1ysXdi047SJPnXN-68" value="User Choices" style="text;html=1;align=center;verticalAlign=middle;whiteSpace=wrap;rounded=0;" vertex="1" parent="1">
          <mxGeometry x="570" y="80" width="100" height="30" as="geometry" />
        </mxCell>
      </root>
    </mxGraphModel>
  </diagram>
</mxfile>
